<?xml version="1.0" encoding="UTF-8" standalone="no"?>
<!-- Created with Inkscape (http://www.inkscape.org/) -->

<svg
   xmlns:dc="http://purl.org/dc/elements/1.1/"
   xmlns:cc="http://creativecommons.org/ns#"
   xmlns:rdf="http://www.w3.org/1999/02/22-rdf-syntax-ns#"
   xmlns:svg="http://www.w3.org/2000/svg"
   xmlns="http://www.w3.org/2000/svg"
   xmlns:sodipodi="http://sodipodi.sourceforge.net/DTD/sodipodi-0.dtd"
   xmlns:inkscape="http://www.inkscape.org/namespaces/inkscape"
   width="720"
   height="1280"
   viewBox="0 0 190.5 338.66668"
   version="1.1"
   id="svg8"
   inkscape:version="0.92.3 (2405546, 2018-03-11)"
   sodipodi:docname="onlyTheSelectedLogoLamaPlain.svg">
  <defs
     id="defs2" />
  <sodipodi:namedview
     id="base"
     pagecolor="#ffffff"
     bordercolor="#666666"
     borderopacity="1.0"
     inkscape:pageopacity="0.0"
     inkscape:pageshadow="2"
     inkscape:zoom="0.49497475"
     inkscape:cx="370.08011"
     inkscape:cy="664.97227"
     inkscape:document-units="mm"
     inkscape:current-layer="layer1"
     showgrid="false"
     inkscape:window-width="1920"
     inkscape:window-height="1017"
     inkscape:window-x="-8"
     inkscape:window-y="-8"
     inkscape:window-maximized="1"
     units="px" />
  <metadata
     id="metadata5">
    <rdf:RDF>
      <cc:Work
         rdf:about="">
        <dc:format>image/svg+xml</dc:format>
        <dc:type
           rdf:resource="http://purl.org/dc/dcmitype/StillImage" />
        <dc:title></dc:title>
      </cc:Work>
    </rdf:RDF>
  </metadata>
  <g
     inkscape:label="Layer 1"
     inkscape:groupmode="layer"
     id="layer1"
     transform="translate(0,41.666683)">
    <path
       style="fill:#000000;stroke-width:0.70749873"
       d="m 48.091409,293.78447 c -3.067863,-0.98449 -4.461126,-2.50039 -4.916218,-5.34894 -0.866466,-5.42351 -0.960882,-5.62647 -2.437772,-5.24026 -1.781304,0.46583 -2.422885,-1.06265 -1.483341,-3.53384 l 0.708454,-1.86337 -2.271447,1.38497 c -3.138626,1.91373 -4.625619,1.76924 -5.196386,-0.50487 -0.52652,-2.09784 0.263133,-29.19415 1.051378,-36.07717 l 0.50001,-4.36613 -2.279609,0.95249 c -5.378568,2.2473 -14.398972,10.18502 -16.943392,14.90973 -0.788195,1.46357 -1.841378,2.42126 -2.662727,2.42126 -1.301777,0 -1.340908,-0.48235 -0.932838,-11.49685 0.634747,-17.13266 4.546854,-33.87981 11.455734,-49.04035 1.362706,-2.99026 2.477647,-5.53964 2.477647,-5.66529 0,-0.12564 -4.634251,2.02939 -10.298337,4.78896 -12.701979,6.18847 -13.3521848,6.00989 -8.9851979,-2.46793 1.6452315,-3.19394 4.5533559,-7.87052 6.4624979,-10.3924 l 3.47118,-4.58524 -2.440553,-1.6584 C 10.195161,173.84315 4.6434397,166.28 4.6434397,164.11193 c 0,-2.03337 -0.085811,-2.0289 5.6234113,-0.2929 2.509186,0.76297 4.630063,1.3177 4.713045,1.23272 0.08298,-0.085 -0.172651,-1.90556 -0.568086,-4.04574 -0.395435,-2.14019 -0.58474,-7.25335 -0.420686,-11.36261 0.260912,-6.53528 0.575776,-8.06435 2.513113,-12.20434 3.157256,-6.74691 3.693752,-6.52079 6.080054,2.56274 1.384284,5.26932 1.668359,5.76934 3.28411,5.78063 1.658249,0.0113 1.83339,0.37699 2.803526,5.84922 0.569127,3.21027 1.231671,5.83687 1.47232,5.83687 0.240648,0 0.863509,-0.79594 1.384143,-1.76875 1.887719,-3.52723 4.210374,-1.6794 4.235335,3.3695 l 0.0096,1.95449 2.699461,-1.7041 c 4.617159,-2.91468 13.648146,-7.21863 20.294247,-9.67175 3.502119,-1.29266 6.639641,-2.57853 6.972273,-2.85749 0.332637,-0.27897 -1.259235,-0.88561 -3.537494,-1.3481 -2.278252,-0.46249 -4.910176,-1.14621 -5.848723,-1.51937 -3.05858,-1.21608 -0.274565,-2.40922 10.199161,-4.37101 15.98224,-2.99356 23.206283,-5.90988 29.308248,-11.83165 3.43678,-3.33531 4.295172,-5.25924 4.295172,-9.6269 v -3.20058 l -2.21156,1.86091 c -1.216361,1.02349 -2.569452,1.73842 -3.00687,1.58871 -0.536347,-0.18357 -0.773494,-3.13026 -0.728314,-9.04987 0.05787,-7.5853 0.328471,-9.546556 1.991864,-14.437677 1.058679,-3.112993 2.743072,-7.063676 3.743086,-8.779289 1.112434,-1.908476 1.437774,-2.962589 0.838124,-2.71561 -0.53904,0.222019 -2.666542,1.117229 -4.727768,1.989343 -5.900957,2.496734 -6.01761,1.395215 -0.842334,-7.953854 2.438882,-4.405799 4.552499,-8.224655 4.696922,-8.486343 0.14442,-0.261689 -1.971191,0.516716 -4.701365,1.729782 -6.882003,3.057802 -7.681017,2.096898 -3.206251,-3.855859 5.719555,-7.608696 8.904416,-15.172603 9.926726,-23.575579 l 0.43038,-3.537494 -4.59012,4.952491 c -3.926038,4.235979 -4.664108,4.76083 -5.101504,3.627736 -0.658512,-1.705921 1.27264,-9.763723 4.175876,-17.423961 l 2.279207,-6.013738 -3.197413,1.569748 c -3.471618,1.704364 -6.381165,2.079989 -6.381165,0.823819 0,-0.434595 2.912193,-5.100281 6.471534,-10.368187 L 102.4863,7.2598787 99.869033,7.6846008 c -1.817161,0.2948858 -2.725186,0.1434634 -2.970314,-0.495326 -0.19418,-0.5060275 1.690279,-4.1995253 4.187691,-8.2077723 l 4.54076,-7.2877217 -1.74344,-4.3118488 c -2.64506,-6.541755 -6.415163,-11.57209 -11.162571,-14.893871 -3.16409,-2.213929 -4.297,-3.457039 -4.467175,-4.901718 -0.296584,-2.517818 0.856257,-3.827127 3.867103,-4.391965 4.588462,-0.860801 8.315913,1.330273 17.220733,10.122707 l 8.14762,8.044776 2.85963,-1.364535 c 8.3657,-3.991853 19.69449,-3.423569 26.45444,1.327025 1.71974,1.208566 1.7244,1.205565 4.29442,-2.767187 3.49508,-5.402729 9.08003,-10.249453 15.20569,-13.195772 8.35265,-4.017469 13.8406,-4.044968 13.77438,-0.06902 -0.0422,2.533156 -1.54383,4.433626 -6.41564,8.119658 -9.91246,7.499791 -10.72332,16.483764 -2.50676,27.7738218 5.36582,7.3729891 6.82498,10.5322402 6.82498,14.7769452 0,4.305075 -1.40169,5.358166 -3.53017,2.652238 -1.34241,-1.706607 -5.41759,-4.061256 -7.02877,-4.061256 -0.43662,0 0.83908,2.39618 2.83488,5.324841 4.07135,5.974339 5.76848,10.573449 4.98404,13.50654 -0.74898,2.80052 -1.84112,2.807723 -3.56188,0.02348 -0.82802,-1.33979 -2.33988,-2.982674 -3.35964,-3.650856 -1.83263,-1.200788 -1.84957,-1.195475 -1.45981,0.457412 0.21689,0.919769 1.35925,4.378483 2.53858,7.68604 3.33575,9.355403 4.51088,20.399266 3.04811,28.646079 -0.5623,3.170187 -2.52719,4.23986 -3.30229,1.797755 -0.4573,-1.440856 -3.65042,-4.042327 -4.23909,-3.453645 -0.1633,0.163297 0.20169,3.151386 0.81109,6.640194 1.48011,8.473625 0.94067,21.938639 -1.1753,29.337001 -1.17794,4.11864 -1.67876,8.7107 -2.23767,20.51746 -0.39603,8.36618 -0.87842,15.37042 -1.07196,15.56498 -0.34544,0.34726 -1.45173,-0.84432 -3.97679,-4.28339 -1.24129,-1.69059 -1.2614,-1.53713 -0.87571,6.68001 0.72032,15.34637 2.9736,25.99815 10.01143,47.32633 2.76686,8.385 4.39343,14.35746 4.01364,14.73726 -0.3798,0.3798 -2.75142,-0.08 -5.85205,-1.13461 -2.86739,-0.97527 -5.41852,-1.77322 -5.66914,-1.77322 -0.25063,0 -0.16839,2.30822 0.18276,5.12937 0.93827,7.53807 0.19598,32.7737 -1.23302,41.9193 -0.66881,4.28036 -1.97131,10.76353 -2.89445,14.40703 l -1.67842,6.62453 3.87083,3.66042 c 3.61914,3.4224 3.87776,3.88873 3.97752,7.17168 0.16506,5.4324 -0.1322,7.6708 -1.15929,8.72938 -1.04578,1.07784 -19.41154,2.59935 -20.21487,1.67469 -0.25101,-0.28891 -0.86521,-2.04523 -1.36489,-3.90291 -0.70644,-2.6264 -1.17062,-3.29442 -2.08704,-3.00356 -0.64819,0.20574 -1.74183,-0.0378 -2.43031,-0.54127 -1.00319,-0.73354 -1.34707,-2.43105 -1.73163,-8.54765 l -0.47986,-7.63236 -2.9389,2.13206 -2.93889,2.13206 0.96221,2.69792 c 1.19357,3.34656 1.25748,15.22939 0.10002,18.5982 -1.27299,3.70511 -3.16407,4.3357 -12.31791,4.10751 -9.94092,-0.2478 -10.52568,-0.6619 -10.3119,-7.30236 l 0.1471,-4.56919 h -3.8614 c -4.68228,0 -4.990891,-1.01546 -1.677766,-5.52062 1.201036,-1.63315 1.979506,-2.96936 1.729926,-2.96936 -0.24958,0 -2.346554,1.28536 -4.659947,2.85635 l -4.206172,2.85636 -0.0014,4.3955 c -6.94e-4,2.76691 -0.459436,5.31299 -1.238124,6.87175 -1.175078,2.35224 -1.467331,2.49984 -5.835767,2.94738 -13.52729,1.38583 -14.279624,1.39959 -15.512631,0.28373 -0.96466,-0.873 -1.678286,-0.93991 -3.63326,-0.34063 -3.197931,0.98027 -14.733116,1.25661 -17.353494,0.41572 z"
       id="path1032"
       inkscape:connector-curvature="0" />
  </g>
</svg>
