<?xml version="1.0" encoding="UTF-8" standalone="no"?>
<!-- Created with Inkscape (http://www.inkscape.org/) -->

<svg
   xmlns:dc="http://purl.org/dc/elements/1.1/"
   xmlns:cc="http://creativecommons.org/ns#"
   xmlns:rdf="http://www.w3.org/1999/02/22-rdf-syntax-ns#"
   xmlns:svg="http://www.w3.org/2000/svg"
   xmlns="http://www.w3.org/2000/svg"
   xmlns:sodipodi="http://sodipodi.sourceforge.net/DTD/sodipodi-0.dtd"
   xmlns:inkscape="http://www.inkscape.org/namespaces/inkscape"
   width="720"
   height="1280"
   viewBox="0 0 190.5 338.66668"
   version="1.1"
   id="svg8"
   inkscape:version="0.92.3 (2405546, 2018-03-11)"
   sodipodi:docname="onlyTheSelectedLogoPlain.svg">
  <defs
     id="defs2" />
  <sodipodi:namedview
     id="base"
     pagecolor="#ffffff"
     bordercolor="#666666"
     borderopacity="1.0"
     inkscape:pageopacity="0.0"
     inkscape:pageshadow="2"
     inkscape:zoom="0.49497475"
     inkscape:cx="234.71967"
     inkscape:cy="549.81488"
     inkscape:document-units="mm"
     inkscape:current-layer="layer1"
     showgrid="false"
     inkscape:window-width="1920"
     inkscape:window-height="1017"
     inkscape:window-x="-8"
     inkscape:window-y="-8"
     inkscape:window-maximized="1"
     units="px" />
  <metadata
     id="metadata5">
    <rdf:RDF>
      <cc:Work
         rdf:about="">
        <dc:format>image/svg+xml</dc:format>
        <dc:type
           rdf:resource="http://purl.org/dc/dcmitype/StillImage" />
        <dc:title></dc:title>
      </cc:Work>
    </rdf:RDF>
  </metadata>
  <g
     inkscape:label="Layer 1"
     inkscape:groupmode="layer"
     id="layer1"
     transform="translate(0,41.666683)">
    <path
       style="fill:#000000;stroke-width:0.56518656"
       d="m 54.610975,230.85459 c -2.450767,-0.78646 -3.563778,-1.99744 -3.927329,-4.27301 -0.692178,-4.33258 -0.767602,-4.49471 -1.947418,-4.18619 -1.422998,0.37213 -1.935526,-0.8489 -1.18497,-2.82301 l 0.56595,-1.48856 -1.814549,1.10639 c -2.507297,1.52878 -3.695184,1.41336 -4.151142,-0.40332 -0.420612,-1.67586 0.210204,-23.3218 0.839895,-28.82031 l 0.399434,-3.48789 -1.82107,0.7609 c -4.296678,1.79526 -11.502643,8.13632 -13.535258,11.91066 -0.629651,1.16918 -1.470988,1.93423 -2.127124,1.93423 -1.039927,0 -1.071187,-0.38533 -0.745199,-9.18428 0.507069,-13.68645 3.632262,-27.06494 9.151433,-39.17597 1.0886,-2.38877 1.979272,-4.42535 1.979272,-4.52572 0,-0.10037 -3.702079,1.62118 -8.226844,3.82567 -10.146998,4.94367 -10.666416,4.80101 -7.177841,-1.97151 1.314296,-2.55149 3.637456,-6.28738 5.162578,-8.30199 l 2.772958,-3.66293 -1.94964,-1.32481 c -2.536619,-1.72368 -6.971621,-7.76551 -6.971621,-9.49748 0,-1.62436 -0.06855,-1.62079 4.492272,-0.23398 2.004468,0.6095 3.698734,1.05264 3.765024,0.98476 0.06629,-0.0679 -0.137922,-1.52226 -0.453816,-3.23195 -0.315894,-1.70969 -0.467121,-5.79435 -0.336066,-9.07704 0.20843,-5.22072 0.45996,-6.44222 2.007605,-9.74946 2.522179,-5.38978 2.95076,-5.20914 4.857061,2.04725 1.105838,4.20941 1.332772,4.60885 2.623517,4.61787 1.324695,0.009 1.464607,0.30116 2.239602,4.67266 0.454648,2.56453 0.983922,4.66279 1.176165,4.66279 0.192242,0 0.689816,-0.63584 1.105725,-1.41297 1.508008,-2.81773 3.363465,-1.34159 3.383405,2.69173 l 0.0077,1.56135 2.156469,-1.36132 c 3.688425,-2.3284 10.902845,-5.76662 16.212094,-7.7263 2.797674,-1.03264 5.304089,-2.05986 5.569812,-2.28271 0.265728,-0.22285 -1.005942,-0.70747 -2.825933,-1.07693 -1.819985,-0.36946 -3.922502,-0.91565 -4.672262,-1.21375 -2.443352,-0.97147 -0.219337,-1.92461 8.147617,-3.49179 12.76744,-2.39141 18.538379,-4.72112 23.412944,-9.451727 2.745478,-2.66442 3.431208,-4.20136 3.431208,-7.690471 v -2.556791 l -1.766711,1.486593 c -0.971692,0.817622 -2.052611,1.388737 -2.402043,1.269143 -0.428462,-0.146643 -0.617907,-2.500617 -0.581815,-7.22951 0.04623,-6.059529 0.2624,-7.626277 1.591204,-11.533559 0.845728,-2.486821 2.191308,-5.642822 2.990171,-7.013343 0.888671,-1.524597 1.148566,-2.366674 0.669536,-2.169373 -0.430615,0.177361 -2.130171,0.892498 -3.776785,1.589192 -4.71399,1.994515 -4.807178,1.114565 -0.6729,-6.353952 1.948305,-3.519581 3.636772,-6.570282 3.752144,-6.779328 0.115371,-0.209051 -1.574689,0.412778 -3.755693,1.381836 -5.4977,2.442731 -6.135994,1.675111 -2.561319,-3.080261 4.569076,-6.078214 7.113309,-12.120658 7.929986,-18.83339 l 0.343803,-2.825933 -3.666823,3.956306 c -3.136322,3.383919 -3.72593,3.803197 -4.075345,2.898023 -0.526053,-1.362778 1.016651,-7.799767 3.335906,-13.919161 l 1.820748,-4.804085 -2.554259,1.253996 c -2.773308,1.361534 -5.097604,1.661603 -5.097604,0.658109 0,-0.347177 2.32641,-4.074368 5.169796,-8.2826436 L 98.064425,1.9639312 95.973619,2.3032217 C 94.521977,2.5387915 93.7966,2.4178274 93.600779,1.9075295 93.445658,1.5032883 94.951061,-1.4472687 96.946124,-4.6492637 l 3.627396,-5.8218093 -1.39275,-3.444528 c -2.113012,-5.225892 -5.124767,-9.244384 -8.917242,-11.897994 -2.527639,-1.768601 -3.432666,-2.761662 -3.568611,-3.915746 -0.236926,-2.011363 0.684023,-3.057307 3.089242,-3.508529 3.665501,-0.687652 6.643181,1.062691 13.756811,8.086542 l 6.50874,6.426583 2.28442,-1.090061 c 6.68295,-3.188899 15.73298,-2.734924 21.13317,1.060096 1.37382,0.965465 1.37754,0.963068 3.43061,-2.210572 2.79205,-4.315979 7.2536,-8.187793 12.14709,-10.541465 6.67253,-3.209362 11.05659,-3.23133 11.00369,-0.05514 -0.0337,2.023616 -1.23329,3.54181 -5.12515,6.486403 -7.91858,5.991221 -8.56634,13.168083 -2.00253,22.1871653 4.2865,5.8899256 5.45215,8.4136984 5.45215,11.8045877 0,3.439117 -1.11974,4.28038 -2.82008,2.118745 -1.07239,-1.3633256 -4.32785,-3.2443406 -5.61495,-3.2443406 -0.34879,0 0.6703,1.914192 2.26465,4.2537576 3.25241,4.772611 4.60816,8.446618 3.98151,10.789723 -0.59832,2.2372 -1.47078,2.242954 -2.84541,0.01876 -0.66147,-1.070294 -1.86922,-2.382714 -2.68386,-2.916493 -1.464,-0.959251 -1.47753,-0.955007 -1.16617,0.365405 0.17326,0.734759 1.08584,3.497758 2.02795,6.140006 2.66477,7.47358 3.60352,16.29599 2.43499,22.883968 -0.4492,2.532511 -2.01885,3.387022 -2.63804,1.436139 -0.36532,-1.15103 -2.91615,-3.229216 -3.38641,-2.758952 -0.13045,0.130451 0.16112,2.517493 0.64794,5.304536 1.18239,6.769171 0.75146,17.525717 -0.93889,23.435913 -0.941,3.290182 -1.34108,6.958554 -1.78756,16.39041 -0.31637,6.683331 -0.70173,12.278684 -0.85634,12.434104 -0.27596,0.27741 -1.15972,-0.67448 -3.17687,-3.42179 -0.9916,-1.35053 -1.00767,-1.22794 -0.69956,5.33634 0.57543,12.25947 2.37547,20.76866 7.99765,37.80672 2.21031,6.69837 3.5097,11.46948 3.2063,11.77288 -0.3034,0.30341 -2.19797,-0.0639 -4.67492,-0.90638 -2.29062,-0.7791 -4.32859,-1.41654 -4.5288,-1.41654 -0.20022,0 -0.13452,1.84392 0.146,4.0976 0.74954,6.0218 0.15656,26.18133 -0.985,33.48731 -0.53428,3.41937 -1.57479,8.59846 -2.31224,11.50908 l -1.34081,5.29202 3.09222,2.92413 c 2.89116,2.73399 3.09776,3.10652 3.17745,5.72911 0.13186,4.33968 -0.10561,6.12783 -0.9261,6.97348 -0.83542,0.86103 -15.50694,2.07649 -16.14868,1.33783 -0.20052,-0.2308 -0.69118,-1.63384 -1.09035,-3.11785 -0.56434,-2.0981 -0.93515,-2.63175 -1.66723,-2.3994 -0.51781,0.16436 -1.39147,-0.0302 -1.94146,-0.43239 -0.8014,-0.58599 -1.07611,-1.94205 -1.38332,-6.82831 l -0.38333,-6.09712 -2.34775,1.7032 -2.34774,1.7032 0.76867,2.15524 c 0.95348,2.6734 1.00454,12.16602 0.0799,14.8572 -1.01693,2.95983 -2.52762,3.46358 -9.84018,3.28129 -7.941322,-0.19795 -8.40846,-0.52876 -8.237683,-5.8335 l 0.117513,-3.65011 h -3.08469 c -3.740444,0 -3.986978,-0.8112 -1.340283,-4.41015 0.959449,-1.30465 1.58133,-2.37208 1.381955,-2.37208 -0.199376,0 -1.874549,1.02681 -3.722607,2.2818 l -3.360108,2.28181 -0.0011,3.51135 c -5.54e-4,2.21035 -0.367021,4.24429 -0.989077,5.48951 -0.938713,1.87909 -1.17218,1.997 -4.661913,2.35452 -10.806299,1.10707 -11.407302,1.11806 -12.392292,0.22666 -0.77062,-0.6974 -1.340701,-0.75085 -2.902436,-0.27212 -2.554672,0.78309 -11.769575,1.00385 -13.862868,0.3321 z"
       id="path1032"
       inkscape:connector-curvature="0" />
    <text
       xml:space="preserve"
       style="font-style:normal;font-variant:normal;font-weight:900;font-stretch:normal;font-size:36.46311188px;line-height:1.25;font-family:Poppins;-inkscape-font-specification:'Poppins, Heavy';font-variant-ligatures:normal;font-variant-caps:normal;font-variant-numeric:normal;font-feature-settings:normal;text-align:start;letter-spacing:0px;word-spacing:0px;writing-mode:lr-tb;text-anchor:start;fill:#000000;fill-opacity:1;stroke:none;stroke-width:0.91156942"
       x="28.112251"
       y="214.27754"
       id="text1320"><tspan
         sodipodi:role="line"
         id="tspan1316"
         x="28.112251"
         y="246.18277"
         style="font-style:normal;font-variant:normal;font-weight:900;font-stretch:normal;font-size:36.46311188px;font-family:Poppins;-inkscape-font-specification:'Poppins, Heavy';font-variant-ligatures:normal;font-variant-caps:normal;font-variant-numeric:normal;font-feature-settings:normal;text-align:start;writing-mode:lr-tb;text-anchor:start;stroke-width:0.91156942" /><tspan
         sodipodi:role="line"
         x="28.112251"
         y="291.76166"
         style="font-style:normal;font-variant:normal;font-weight:900;font-stretch:normal;font-size:36.46311188px;font-family:Poppins;-inkscape-font-specification:'Poppins, Heavy';font-variant-ligatures:normal;font-variant-caps:normal;font-variant-numeric:normal;font-feature-settings:normal;text-align:start;writing-mode:lr-tb;text-anchor:start;stroke-width:0.91156942"
         id="tspan1318">GUARD</tspan></text>
    <text
       xml:space="preserve"
       style="font-style:normal;font-variant:normal;font-weight:900;font-stretch:normal;font-size:36.46311188px;line-height:1.25;font-family:Poppins;-inkscape-font-specification:'Poppins, Heavy';font-variant-ligatures:normal;font-variant-caps:normal;font-variant-numeric:normal;font-feature-settings:normal;text-align:start;letter-spacing:0px;word-spacing:0px;writing-mode:lr-tb;text-anchor:start;fill:#000000;fill-opacity:1;stroke:none;stroke-width:0.91156942"
       x="40.281654"
       y="260.88904"
       id="text1342"><tspan
         sodipodi:role="line"
         id="tspan1338"
         x="40.281654"
         y="260.88904"
         style="font-style:normal;font-variant:normal;font-weight:900;font-stretch:normal;font-size:36.46311188px;font-family:Poppins;-inkscape-font-specification:'Poppins, Heavy';font-variant-ligatures:normal;font-variant-caps:normal;font-variant-numeric:normal;font-feature-settings:normal;text-align:start;writing-mode:lr-tb;text-anchor:start;stroke-width:0.91156942">LAMA</tspan><tspan
         sodipodi:role="line"
         x="40.281654"
         y="306.46793"
         style="font-style:normal;font-variant:normal;font-weight:900;font-stretch:normal;font-size:36.46311188px;font-family:Poppins;-inkscape-font-specification:'Poppins, Heavy';font-variant-ligatures:normal;font-variant-caps:normal;font-variant-numeric:normal;font-feature-settings:normal;text-align:start;writing-mode:lr-tb;text-anchor:start;stroke-width:0.91156942"
         id="tspan1340" /></text>
  </g>
</svg>
